<?xml version="1.0" encoding="utf-8"?>
<!-- Generator: Adobe Illustrator 22.0.1, SVG Export Plug-In . SVG Version: 6.00 Build 0)  -->
<svg version="1.1" id="Layer_1" xmlns="http://www.w3.org/2000/svg" xmlns:xlink="http://www.w3.org/1999/xlink" x="0px" y="0px"
	 viewBox="0 0 16 16" style="enable-background:new 0 0 16 16;" xml:space="preserve">
<style type="text/css">
	.st0{fill:url(#SVGID_1_);}
	.st1{fill:#FFFFFF;}
</style>
<linearGradient id="SVGID_1_" gradientUnits="userSpaceOnUse" x1="0.5055" y1="0.6011" x2="17.2778" y2="17.1594">
	<stop  offset="0" style="stop-color:#F69A2E"/>
	<stop  offset="0.505" style="stop-color:#DA1334"/>
	<stop  offset="1" style="stop-color:#8A186C"/>
</linearGradient>
<rect class="st0" width="16" height="16"/>
<g>
	<path class="st1" d="M7.8,7.3L7.6,7.5v0c0-0.2-0.1-0.3-0.3-0.3H7c-0.1,0-0.1,0-0.2,0.1L6.6,7.5L6.6,7.2H6.1v1.6h0.6V7.7H7
		c0,0,0.1,0,0.1,0.1v1h0.6V7.7H8c0,0,0.1,0,0.1,0.1v1h0.6V7.5c0-0.2-0.1-0.3-0.3-0.3H8C8,7.2,7.9,7.2,7.8,7.3z"/>
	<path class="st1" d="M11.8,7.2l-0.1,0.3l-0.2-0.2c-0.1-0.1-0.1-0.1-0.2-0.1H11c-0.2,0-0.3,0.1-0.3,0.3v0.4c0,0.2,0.1,0.3,0.3,0.3
		l0.8,0.1v0.1l-1.1,0.1v0.5l1.3,0c0.2,0,0.3-0.1,0.3-0.3V7.2H11.8z M11.8,8l-0.5-0.1V7.7h0.5V8z"/>
	<path class="st1" d="M5,8.3l-0.8,0V7.2H3.7v1.3c0,0.2,0.1,0.3,0.3,0.3h0.3l0.8,0V8.3z"/>
	<rect x="5.2" y="7.2" class="st1" width="0.6" height="1.6"/>
	<path class="st1" d="M10,7.2L9.9,7.5L9.7,7.3C9.7,7.2,9.5,7.2,9.4,7.2H9.1C9,7.2,8.9,7.3,8.9,7.5v1c0,0.2,0.1,0.3,0.3,0.3h0.3
		c0.1,0,0.2,0,0.3-0.1l0.2-0.2L10,8.8h0.5V7.2H10z M9.9,8.2C9.9,8.3,9.9,8.3,9.9,8.2L9.5,8.3c0,0,0,0,0,0V7.7c0,0,0,0,0,0h0.4
		c0,0,0.1,0,0.1,0.1V8.2z"/>
</g>
</svg>
