<?xml version="1.0" encoding="utf-8"?>
<!-- Generator: Adobe Illustrator 22.0.1, SVG Export Plug-In . SVG Version: 6.00 Build 0)  -->
<svg version="1.1" id="Layer_1" xmlns="http://www.w3.org/2000/svg" xmlns:xlink="http://www.w3.org/1999/xlink" x="0px" y="0px"
	 viewBox="0 0 16 16" style="enable-background:new 0 0 16 16;" xml:space="preserve">
<style type="text/css">
	.st0{fill:url(#SVGID_1_);}
	.st1{fill:#FFFFFF;}
</style>
<linearGradient id="SVGID_1_" gradientUnits="userSpaceOnUse" x1="0.5055" y1="1062.6011" x2="17.2778" y2="1079.1594" gradientTransform="matrix(1 0 0 1 0 -1062)">
	<stop  offset="0" style="stop-color:#F69A2E"/>
	<stop  offset="0.505" style="stop-color:#DA1334"/>
	<stop  offset="1" style="stop-color:#8A186C"/>
</linearGradient>
<rect class="st0" width="16" height="16"/>
<g>
	<path class="st1" d="M5.1,6.9C5,6.8,4.9,6.8,4.7,6.8C4.5,6.8,4.3,6.9,4.1,7C4,7.1,3.9,7.2,3.8,7.4V5.9H3.1v3.6h0.7V8.2
		c0-0.2,0-0.3,0.1-0.5C3.9,7.6,4,7.5,4.1,7.5s0.2-0.1,0.3-0.1c0.1,0,0.2,0,0.3,0.1c0.1,0.1,0.1,0.2,0.1,0.4v1.6h0.7V7.8
		c0-0.2,0-0.4-0.1-0.6C5.3,7.1,5.2,7,5.1,6.9z"/>
	<path class="st1" d="M7.6,8.1c0,0.2,0,0.3-0.1,0.5C7.5,8.7,7.4,8.8,7.3,8.9C7.2,8.9,7.1,9,7,9c-0.1,0-0.2,0-0.3-0.1
		C6.6,8.8,6.6,8.7,6.6,8.5V6.9H5.9v1.7c0,0.2,0,0.4,0.1,0.6c0.1,0.2,0.2,0.3,0.3,0.3c0.1,0.1,0.3,0.1,0.4,0.1c0.2,0,0.4-0.1,0.6-0.2
		C7.4,9.3,7.5,9.2,7.6,9v0.5h0.7V6.9H7.6V8.1z"/>
	<path class="st1" d="M10.8,6.9c-0.1-0.1-0.3-0.1-0.4-0.1c-0.2,0-0.4,0.1-0.6,0.2C9.6,7.1,9.5,7.2,9.5,7.4V5.9H8.8v3.6h0.7V8.2
		c0-0.2,0-0.3,0.1-0.5c0.1-0.1,0.1-0.2,0.2-0.3C9.8,7.4,9.9,7.4,10,7.4c0.1,0,0.2,0,0.3,0.1c0.1,0.1,0.1,0.2,0.1,0.4v1.6h0.7V7.8
		c0-0.2,0-0.4-0.1-0.6C11,7.1,10.9,7,10.8,6.9z"/>
	<polygon class="st1" points="12.9,5.9 12.1,5.9 11.8,8.2 12.4,8.2 	"/>
	<rect x="11.7" y="8.6" class="st1" width="0.9" height="0.8"/>
</g>
</svg>
