<?xml version="1.0" encoding="utf-8"?>
<!-- Generator: Adobe Illustrator 22.0.1, SVG Export Plug-In . SVG Version: 6.00 Build 0)  -->
<svg version="1.1" id="Layer_1" xmlns="http://www.w3.org/2000/svg" xmlns:xlink="http://www.w3.org/1999/xlink" x="0px" y="0px"
	 viewBox="0 0 1359.7 121.8" style="enable-background:new 0 0 1359.7 121.8;" xml:space="preserve" fill =  "#000000">
<g>
	<g>
		<g>
			<path d="M756.5,121.8c-19.4,0-33.7-3.1-42.9-9.4c-9.2-6.3-14.3-16.6-15.3-30.9h39.9c0.6,5.2,2.4,8.9,5.3,11
				c2.9,2.1,7.6,3.1,14,3.1c10.9,0,16.3-2.9,16.3-8.7c0-2.8-1.3-5-3.8-6.6s-7.1-2.9-13.7-3.9l-16.6-2.5C713,70,699.6,58,699.6,37.8
				c0-12.2,4.7-21.6,14.2-28.1S737,0,755.1,0c35.8,0,54.6,13.4,56.2,40.1h-37.8c-0.3-9.3-6.4-13.9-18.4-13.9
				c-10.2,0-15.2,2.9-15.2,8.7c0,2.7,1.1,4.7,3.2,6s5.9,2.4,11.1,3.1l19.7,2.7c13.9,1.9,24.1,5.9,30.8,11.9c6.6,6,10,14.3,10,24.9
				c0,12.2-5.1,21.7-15.2,28.3C789.3,118.5,775,121.8,756.5,121.8z"/>
			<path d="M985.8,66.7v-64h41.2v115.5h-40.3V103c-9.3,11.9-21.3,17.9-36.1,17.9c-11.9,0-21.6-3.8-28.9-11.3
				c-7.3-7.5-11-18.2-11-32.1V2.7H952v66.1c0,11.5,5.2,17.2,15.7,17.2c5.2,0,9.5-1.7,13-5C984.1,77.6,985.8,72.9,985.8,66.7z"/>
			<path d="M1121.5,0v20.2c-7.6-10-18.2-15-31.8-15c-15.3,0-27.2,5.5-36.1,16.4c-8.8,10.9-13.2,25.6-13.2,44.1s4.4,33.2,13.2,44.1
				c2.7,3.4,5.8,6.3,9.1,8.5h51.6c3-2.4,5.7-5.3,8.2-8.8v8.8h40.1V0H1121.5z M1102,93.8c-13.4,0-20.2-9.1-20.2-27.3
				c0-19.4,6.7-29.1,20.2-29.1c13.4,0,20.2,9.4,20.2,28.2S1115.4,93.8,1102,93.8z"/>
			<path d="M1221.8,118.2h-41.2V2.7h41.2V118.2z"/>
			<path d="M1342.9,104.3c-11.3,11.1-26.5,16.6-45.5,16.6s-34.1-5.5-45.5-16.6c-11.2-11-16.8-25.7-16.8-43.9
				c0-18.5,5.6-33.2,16.8-44.1c11-10.9,26.2-16.3,45.5-16.3s34.4,5.5,45.5,16.3c11.2,11,16.8,25.8,16.8,44.1
				C1359.7,78.7,1354.1,93.3,1342.9,104.3z M1297.5,32.2c-13.9,0-20.8,9.4-20.8,28.2s6.9,28.2,20.8,28.2s20.8-9.4,20.8-28.2
				S1311.4,32.2,1297.5,32.2z"/>
			<path d="M834.4,2.7h-16.3v29.1h16.3v51.1c0,13,3.5,22.3,10.5,28s18.7,8.5,34.9,8.5c4.6,0,10.5-0.4,17.5-1.1v-30h-8.5
				c-5.1,0-8.6-0.6-10.4-1.9c-1.9-1.3-2.8-4.1-2.8-8.4V31.8h21.7V2.7h-21.7H834.4z"/>
		</g>
		<path d="M636.2,6.7h-8.1v-4h20.6v4h-8.1v21.4h-4.4V6.7z M666.5,16.4L672,2.7h5v25.4h-4.3v-8.4c0-4,0-6.7,0.1-8.1l-0.7,1.7
			l-5.9,14.8h-3.5l-6-14.8l-0.7-1.8c0.1,1.4,0.1,4.1,0.1,8.2v8.4h-4.3V2.7h5l5.7,14.1c0.1,0.2,0.7,2,1.9,5.3L666.5,16.4z"/>
		<g>
			<path d="M298.5,8.6L284.1,23l0,0c0-11.2-9.1-20.3-20.3-20.3h-21.9c-5.4,0-10.6,2.1-14.4,6L213,23l-4.8-20.4h-35.9v115.3H213V38.6
				h25.6c2.6,0,4.8,2.1,4.8,4.8V118h40.7V38.6h25.6c2.6,0,4.8,2.1,4.8,4.8V118h40.7V23c0-11.2-9.1-20.3-20.3-20.3H313
				C307.5,2.7,302.3,4.8,298.5,8.6z"/>
			<path d="M584,2.7L579.2,23L564.8,8.6c-3.8-3.8-9-6-14.4-6h-26.7c-11.2,0-20.3,9.1-20.3,20.3v27.6c0,10.7,8.3,19.6,19.1,20.3
				l56.8,3.6V82l-75.8,4.8v33.5l96.2-2.4c11.2,0,20.3-9.1,20.3-20.3v-95L584,2.7L584,2.7z M579.2,60.4l-35.2-10V38.6h35.2V60.4z"/>
			<path d="M97.5,81.2l-56.8,0.9V2.7H0v95C0,108.9,9.1,118,20.3,118h20.4l56.8-1.7V81.2z"/>
			<rect x="111" y="2.7" width="40.7" height="115.3"/>
			<path d="M451.6,2.7L446.8,23L432.4,8.6c-3.8-3.8-13.8-6-19.2-6h-21.9c-11.2,0-20.3,9.1-20.3,20.3v74.7c0,11.2,9.1,20.3,20.3,20.3
				h21.9c5.4,0,15.3-2.2,19.2-6l14.4-14.4l4.8,20.3h35.9V2.7H451.6z M446.8,76.6c0,3-2.5,5.5-5.5,5.5h-26.5c-1.7,0-3.1-1.4-3.1-3.1
				V41.7c0-1.7,1.4-3.1,3.1-3.1h26.5c3,0,5.5,2.5,5.5,5.5V76.6z"/>
		</g>
	</g>
</g>
</svg>
