<svg width="16" height="15" viewBox="0 0 16 15" fill="none" xmlns="http://www.w3.org/2000/svg">
<path d="M0.25 2.90002C0.25 1.40002 1.45007 0.200012 2.95007 0.200012H12.75C14.25 0.200012 15.4501 1.40002 15.4501 2.90002V8.40002C15.4501 9.90002 14.25 11.1 12.75 11.1H8.55005L5.25 14C4.55 14.6 3.45007 14.1 3.45007 13.2V11.1H2.95007C1.45007 11.1 0.25 9.90002 0.25 8.40002V2.90002ZM2.95007 1.20001C2.05007 1.20001 1.3501 1.90005 1.3501 2.80005V8.30005C1.3501 9.20005 2.05007 9.90002 2.95007 9.90002H4.55005V13.1L8.15002 9.90002H12.75C13.65 9.90002 14.3501 9.20005 14.3501 8.30005V2.90002C14.3501 2.00002 13.65 1.30005 12.75 1.30005H2.95007V1.20001Z" fill="#212121"/>
</svg>
