<svg width="14" height="14" viewBox="0 0 14 14" fill="none" xmlns="http://www.w3.org/2000/svg">
<path d="M11.15 0.900024C9.85002 0.900024 8.75 2.00005 8.75 3.30005C8.75 3.50005 8.75 3.60005 8.75 3.80005L4.3501 5.80005C3.9501 5.20005 3.15007 4.80005 2.45007 4.80005C1.15007 4.80005 0.0500488 5.90001 0.0500488 7.20001C0.0500488 8.50001 1.15007 9.60004 2.45007 9.60004C3.25007 9.60004 3.95007 9.20004 4.45007 8.60004L8.8501 10.5C8.8501 10.7 8.75 10.8 8.75 11C8.75 12.3 9.85002 13.4 11.15 13.4C12.45 13.4 13.55 12.3 13.55 11C13.55 9.7 12.45 8.60004 11.15 8.60004C10.35 8.60004 9.65002 9.00004 9.15002 9.60004L4.75 7.70001C4.75 7.50001 4.8501 7.40001 4.8501 7.20001C4.8501 7.00001 4.85 6.80001 4.75 6.70001L9.15002 4.70001C9.55002 5.30001 10.35 5.70001 11.15 5.70001C12.45 5.70001 13.55 4.60005 13.55 3.30005C13.65 2.00005 12.55 0.900024 11.15 0.900024ZM11.15 1.90002C11.95 1.90002 12.55 2.50005 12.55 3.30005C12.55 4.10005 11.95 4.70001 11.15 4.70001C10.35 4.70001 9.75 4.10005 9.75 3.30005C9.75 2.50005 10.35 1.90002 11.15 1.90002ZM2.45007 5.80005C3.25007 5.80005 3.8501 6.40001 3.8501 7.20001C3.8501 8.00001 3.25007 8.60004 2.45007 8.60004C1.65007 8.60004 1.05005 8.00001 1.05005 7.20001C1.05005 6.40001 1.65007 5.80005 2.45007 5.80005ZM11.15 9.60004C11.95 9.60004 12.55 10.2 12.55 11C12.55 11.8 11.95 12.4 11.15 12.4C10.35 12.4 9.75 11.8 9.75 11C9.75 10.2 10.35 9.60004 11.15 9.60004Z" fill="#212121"/>
</svg>
