<svg width="18" height="12" viewBox="0 0 18 12" fill="none" xmlns="http://www.w3.org/2000/svg">
<path d="M17.55 5.30002C15.05 2.50002 12.25 8.10623e-06 8.45005 0.100008C4.85005 0.200008 2.35 2.50002 0.15 5.30002C-0.05 5.50002 -0.05 5.80001 0.15 6.10001C2.45 9.00001 5.44998 11.4 9.24998 11.3C12.95 11.3 15.55 8.99997 17.75 5.99997C17.75 5.79997 17.75 5.50002 17.55 5.30002ZM9.15 10.2C5.65 10.2 3.54998 8.39998 1.24998 5.69998C3.34998 3.29998 5.15005 1.30002 8.45005 1.30002C11.95 1.20002 14.05 3.30002 16.45 5.80002C14.35 8.40002 12.45 10.2 9.15 10.2Z" fill="#212121"/>
<path d="M10.8501 3.70001C10.3501 3.20001 9.6501 2.90002 8.8501 2.90002C8.0501 2.90002 7.3501 3.20001 6.8501 3.70001C6.3501 4.20001 6.05005 4.90001 6.05005 5.70001C6.05005 6.40001 6.3501 7.20001 6.8501 7.70001C7.3501 8.20001 8.0501 8.5 8.8501 8.5C9.5501 8.5 10.3501 8.20001 10.8501 7.70001C11.3501 7.20001 11.65 6.50001 11.65 5.70001C11.65 5.00001 11.3501 4.30001 10.8501 3.70001ZM10.05 7C9.75005 7.3 9.25 7.5 8.75 7.5C8.25 7.5 7.85007 7.3 7.45007 7C7.15007 6.7 6.95007 6.20001 6.95007 5.70001C6.95007 5.20001 7.15007 4.80002 7.45007 4.40002C7.75007 4.10002 8.25 3.90002 8.75 3.90002C9.25 3.90002 9.65005 4.10002 10.05 4.40002C10.35 4.70002 10.55 5.20001 10.55 5.70001C10.65 6.20001 10.45 6.7 10.05 7Z" fill="#212121"/>
</svg>
